<svg xmlns="http://www.w3.org/2000/svg" style="display: none;">
  <!-- Whatsapp icon -->
  <symbol id="whatsapp-icon" viewBox="0 0 22 21"> 
    <path d="M21.4782 17.4184C21.044 18.6447 19.3205 19.6617 17.9457 19.9587C17.0052 20.1589 15.7767 20.3187 11.6412 18.6042C6.35149 16.4127 2.94499 11.0374 2.67949 10.6887C2.42524 10.3399 0.541992 7.84241 0.541992 5.25941C0.541992 2.67641 1.85374 1.41866 2.38249 0.878661C2.81674 0.435411 3.53449 0.23291 4.22299 0.23291C4.44574 0.23291 4.64599 0.24416 4.82599 0.25316C5.35474 0.27566 5.62024 0.307161 5.96899 1.14191C6.40324 2.18816 7.46074 4.77116 7.58674 5.03666C7.71499 5.30216 7.84324 5.66216 7.66324 6.01091C7.49449 6.37091 7.34599 6.53066 7.08049 6.83666C6.81499 7.14266 6.56299 7.37666 6.29749 7.70516C6.05449 7.99091 5.77999 8.29691 6.08599 8.82566C6.39199 9.34316 7.44949 11.0689 9.00649 12.4549C11.0157 14.2437 12.6447 14.8152 13.2275 15.0582C13.6617 15.2382 14.1792 15.1954 14.4965 14.8579C14.8992 14.4237 15.3965 13.7037 15.9027 12.9949C16.2627 12.4864 16.7172 12.4234 17.1942 12.6034C17.6802 12.7722 20.252 14.0434 20.7807 14.3067C21.3095 14.5722 21.6582 14.6982 21.7865 14.9209C21.9125 15.1437 21.9125 16.1899 21.4782 17.4184Z" fill="#002B45"/>
  </symbol>

  <!-- Telegram icon -->
  <symbol id="telegram-icon" viewBox="0 0 21 18"> 
    <path fill-rule="evenodd" clip-rule="evenodd" d="M2.14853 7.80994C7.39588 5.52373 10.895 4.01651 12.6457 3.28835C17.6445 1.20921 18.6832 0.848016 19.3602 0.836063C19.5091 0.833461 19.842 0.870375 20.0577 1.04538C20.3776 1.30498 20.3794 1.86846 20.3439 2.2414C20.073 5.08765 18.9009 11.9947 18.3046 15.1825C18.0522 16.5314 17.5554 16.9837 17.0745 17.0279C16.0292 17.1241 15.2354 16.3371 14.223 15.6735C12.6388 14.635 11.7438 13.9885 10.206 12.9752C8.42884 11.804 9.58091 11.1604 10.5937 10.1085C10.8588 9.83318 15.4643 5.64403 15.5535 5.26399C15.5646 5.21646 15.575 5.03927 15.4697 4.94576C15.3645 4.85224 15.2091 4.88416 15.0971 4.90962C14.9382 4.94569 12.4073 6.61849 7.50458 9.92796C6.7862 10.4213 6.13553 10.6616 5.55257 10.649C4.90984 10.6352 3.67361 10.2856 2.75455 9.98688C1.6273 9.62049 0.73138 9.4267 0.809427 8.80444C0.850068 8.48023 1.29641 8.14877 2.14853 7.80994Z" fill="#002B45"/>
  </symbol>
</svg>